PathFileType	4	(X/Y/Z)	/Users/niels/Desktop/University/Third Semester/Perception and Action/Exam/Gymnastics Motion Tracking/Code for Gym Tracking/Analyzed Data/Webcam_Backflip/id1_5_trajectory_Sports2D/id1_5_trajectory_Sports2D_px_person00.trc
DataRate	CameraRate	NumFrames	NumMarkers	Units	OrigDataRate	OrigDataStartFrame	OrigNumFrames
29.71698113207547	29.71698113207547	10	22	m	29.71698113207547	53	106
Frame#	Time	Hip			RHip			RKnee			RAnkle			RBigToe			RSmallToe			RHeel			LHip			LKnee			LAnkle			LBigToe			LSmallToe			LHeel			Neck			Head			Nose			RShoulder			RElbow			RWrist			LShoulder			LElbow			LWrist		
		X1	Y1	Z1	X2	Y2	Z2	X3	Y3	Z3	X4	Y4	Z4	X5	Y5	Z5	X6	Y6	Z6	X7	Y7	Z7	X8	Y8	Z8	X9	Y9	Z9	X10	Y10	Z10	X11	Y11	Z11	X12	Y12	Z12	X13	Y13	Z13	X14	Y14	Z14	X15	Y15	Z15	X16	Y16	Z16	X17	Y17	Z17	X18	Y18	Z18	X19	Y19	Z19	X20	Y20	Z20	X21	Y21	Z21	X22	Y22	Z22
53	1.7834920634920632	0.9410650236931246	-0.7082295749594286	0.0	0.9340372146084235	-0.7121456776420461	0.0	0.9836757822965945	-0.8298317599088028	0.0	0.9463157998036436	-0.9479432175295662	0.0	0.9982627611901262	-0.9639441101287969	0.0	0.985934962155705	-0.9738749342866699	0.0	0.9301658854708456	-0.9597900518510837	0.0	0.9544938199810248	-0.7096368947441278	0.0	0.9953312903310264	-0.8217906176341191	0.0	0.9590842935070301	-0.9381436599260664	0.0	1.0108374513532346	-0.9496930315222699	0.0	0.9962008681965884	-0.9537183070432009	0.0	0.9346478261697582	-0.947914895264587	0.0	0.9563166106336353	-0.532844008826295	0.0	0.9503832397810379	-0.4540692251852889	0.0	0.9820850780553366	-0.48550745054308553	0.0	0.9508381433201276	-0.545579872607917	0.0	1.0120484011342297	-0.5639082782289018	0.0	1.065780986125363	-0.5453104052537568	0.0	0.9610000151756973	-0.5436820769445071	0.0	1.024134537263519	-0.541697707855659	0.0	1.0731201409066358	-0.5113523841413228	0.0
54	1.817142857142857	0.9487250896963917	-0.6947851498275919	0.0	0.9425132818537368	-0.6981018562946246	0.0	0.9841047990309733	-0.8216326123066776	0.0	0.9475416177957874	-0.9437777468511975	0.0	0.9956710012234076	-0.9608023540811529	0.0	0.9846077835706518	-0.9701643673520586	0.0	0.9316157208455424	-0.9564884171845134	0.0	0.9599029713259907	-0.696067193923128	0.0	0.9938126350166431	-0.8154196935976725	0.0	0.9587268220705105	-0.9346688485580296	0.0	1.0079177724108068	-0.9486906459029855	0.0	0.9941109197469689	-0.9495003037850248	0.0	0.9357306539435816	-0.9459851882556551	0.0	0.9417231778331197	-0.5210846261510483	0.0	0.921935293954753	-0.4451851383593777	0.0	0.959913683774154	-0.4711644126938628	0.0	0.9409574435101856	-0.5272611550227813	0.0	1.0035718802306266	-0.5194566510535963	0.0	1.0453246309815485	-0.4766919312074923	0.0	0.9454443994170003	-0.528444699216004	0.0	1.0090212902216507	-0.5042171155031124	0.0	1.0452428019119882	-0.4555719104012367	0.0
55	1.8507936507936507	0.9559541544162797	-0.6693850100466512	0.0	0.9506863913797123	-0.6717596453395523	0.0	0.9895072191870898	-0.7982238192554107	0.0	0.9512343951296907	-0.9262447377587898	0.0	0.993659810967705	-0.9473705940781846	0.0	0.9840764895159918	-0.9546720525276265	0.0	0.9355230175565156	-0.9402614659131878	0.0	0.9640712329057597	-0.6702852657220753	0.0	0.9958071285265655	-0.7943893616180269	0.0	0.9615534419562962	-0.9184574956841229	0.0	1.007246637180897	-0.936889608543672	0.0	0.9952569829434428	-0.9353236690158652	0.0	0.9401367366804999	-0.9319465592438204	0.0	0.9257592747865657	-0.5018422534284223	0.0	0.8925713846041633	-0.43151592519035364	0.0	0.9354237766451201	-0.45074812706169476	0.0	0.9286138690436316	-0.5009038419417124	0.0	0.9856449573872247	-0.4702800632400882	0.0	1.0111896424666336	-0.410521426115915	0.0	0.9286252968022439	-0.506501821715688	0.0	0.9885275649241164	-0.46448908705283415	0.0	1.0094296419675177	-0.40351602863837377	0.0
56	1.8844444444444441	0.9614120989667513	-0.6345138877366097	0.0	0.9568717551755028	-0.6358188243434337	0.0	1.0007276913226715	-0.7601590647980921	0.0	0.9591430504690979	-0.8946607102258167	0.0	0.9955776784957268	-0.9217252901164154	0.0	0.9873585868048309	-0.9262908744622235	0.0	0.9435896484202975	-0.9102579400284546	0.0	0.9663719738246825	-0.634917660727399	0.0	1.0029782452801168	-0.7587354749271306	0.0	0.969630430829696	-0.8886190608305843	0.0	1.0120159000844653	-0.9122604268512178	0.0	1.0019899072163405	-0.9093251434467756	0.0	0.9496070202485817	-0.9045975366847758	0.0	0.9083163532765924	-0.47707562337048603	0.0	0.8622859100135734	-0.41503162585465275	0.0	0.9086756696243664	-0.426330947278361	0.0	0.9131066475524698	-0.46993693139622483	0.0	0.9616256087507324	-0.422787357170261	0.0	0.9721396814451981	-0.352790024786927	0.0	0.9115266725324669	-0.4802283774501946	0.0	0.966492397563561	-0.42625957427071864	0.0	0.9731737594255945	-0.357978552789316	0.0
57	1.9180952380952379	0.9640702078682218	-0.5942532120508567	0.0	0.9598785538261516	-0.5945423602770259	0.0	1.0169639390998781	-0.7091664115087264	0.0	0.973203088272442	-0.8487510938337585	0.0	1.0052179469009417	-0.881244817416287	0.0	0.9981734752898039	-0.8833641899993487	0.0	0.9578391820782715	-0.8660397679086244	0.0	0.9665553718486823	-0.5941861340610364	0.0	1.0155277668036462	-0.7097751542298968	0.0	0.9847077359115771	-0.8445351361407866	0.0	1.0249943663571677	-0.8722916456064352	0.0	1.0165438203386308	-0.8687513083895086	0.0	0.9659736993768205	-0.8629552481466838	0.0	0.8898409346302979	-0.4495194013181474	0.0	0.8317602894235004	-0.39822982324174516	0.0	0.8807338754834895	-0.4007422299764147	0.0	0.8945221926079572	-0.43838900777088696	0.0	0.9358153012972605	-0.3821378507425275	0.0	0.9359878049375655	-0.30639619878829183	0.0	0.8952315935060088	-0.45230999244010045	0.0	0.9466807011759149	-0.393033385350834	0.0	0.9432175250572192	-0.32090455530589196	0.0
58	1.9517460317460316	0.9636475856587206	-0.5532415365974497	0.0	0.9594767280845268	-0.5527395919676295	0.0	1.0350711973316529	-0.6478976903270774	0.0	0.9948055738221823	-0.7889284534976413	0.0	1.025546822535706	-0.8231217592427934	0.0	1.0196372695679612	-0.8239992927453581	0.0	0.9801535858270481	-0.8078613640679517	0.0	0.964773606359804	-0.5529139239357588	0.0	1.031391056733924	-0.6497854643734088	0.0	1.0074910025580128	-0.7860139794106953	0.0	1.047471396100948	-0.8143683074757134	0.0	1.040175375208167	-0.8108400169373632	0.0	0.9905325442306228	-0.8064007811237625	0.0	0.8713156998505718	-0.4222095871056863	0.0	0.802475499938132	-0.3830862596698788	0.0	0.8534452925175541	-0.3767025492340502	0.0	0.873789739385939	-0.4097410693152634	0.0	0.9122532189037993	-0.35126562901293185	0.0	0.9080923151620166	-0.2721255632431012	0.0	0.8807453615656305	-0.42541841999355295	0.0	0.9319509469835054	-0.36726761538061625	0.0	0.9243483217362967	-0.2935406576056002	0.0
59	1.985396825396825	0.9607775042863803	-0.5154464897744025	0.0	0.95647004914349	-0.5144564870365127	0.0	1.050363431537228	-0.5796772222893672	0.0	1.023664394174876	-0.7162105640290224	0.0	1.0565782570966749	-0.7452282884628938	0.0	1.0519049689270268	-0.7466735685202954	0.0	1.0112072200909048	-0.7364650378934494	0.0	0.9615539149224255	-0.5152245266839024	0.0	1.0464551036595604	-0.5820134608207207	0.0	1.0368422151416155	-0.7135676718366507	0.0	1.0781363816282752	-0.7367153611925946	0.0	1.0718798725022207	-0.7338898290142273	0.0	1.0232506858321402	-0.7350045887815598	0.0	0.8539179435484228	-0.3979478922970531	0.0	0.7762708489143358	-0.3704333702848151	0.0	0.8287077907203836	-0.35616388199287485	0.0	0.8527311076520661	-0.3861363496595407	0.0	0.8938671909605197	-0.3306633448028871	0.0	0.8913606475928268	-0.2493816454670527	0.0	0.8684925126823533	-0.4020062989880872	0.0	0.9232275809495799	-0.3496653678801147	0.0	0.9182965711098753	-0.2758884983323207	0.0
60	2.019047619047619	0.956794298378722	-0.48325381561146735	0.0	0.9524403536168302	-0.4819500498905729	0.0	1.0586406952356067	-0.508335731815445	0.0	1.0567040997891515	-0.6318167138709131	0.0	1.0932092507461308	-0.6472937338381434	0.0	1.090009932012687	-0.6510142116366341	0.0	1.0488144299641105	-0.6525773491484135	0.0	0.9577891912720436	-0.4834809895486382	0.0	1.05578576306742	-0.5109146411242288	0.0	1.0689919485294208	-0.628730112740291	0.0	1.111904933245127	-0.6395667815178427	0.0	1.1069793861043145	-0.6382119415171844	0.0	1.0614396772728094	-0.6498670557543887	0.0	0.8387037801309233	-0.37873634459040034	0.0	0.7548179520197643	-0.36039833115990155	0.0	0.8079903089869236	-0.3402147792986156	0.0	0.8337561095833828	-0.36831751905643234	0.0	0.8821115061345168	-0.31897240118099707	0.0	0.8864076912325827	-0.23667901119864806	0.0	0.8580850563817236	-0.3839558316293611	0.0	0.9193082328780442	-0.33931257377752355	0.0	0.9231194913464587	-0.26640079791583143	0.0
61	2.0526984126984122	0.9533093418939859	-0.4570783427205496	0.0	0.9492423078166293	-0.4553587342460929	0.0	1.0576996924009365	-0.4382613550146248	0.0	1.0877020675487545	-0.537552637834597	0.0	1.1251654891264018	-0.5326919410294122	0.0	1.1239656838776453	-0.5394694348988793	0.0	1.086610738860767	-0.5573217073084848	0.0	0.9546364428416321	-0.45791706258703085	0.0	1.0557031628624125	-0.4417327862858723	0.0	1.097338545661611	-0.5344799841721208	0.0	1.139680823614806	-0.5269100898753233	0.0	1.136684019880413	-0.527560411169381	0.0	1.0984654292580376	-0.5535052944640197	0.0	0.8265031842819871	-0.3655067779973385	0.0	0.7392850112850176	-0.35335198419697866	0.0	0.7921433683577302	-0.32929649009968187	0.0	0.8191024171704103	-0.3561104132771359	0.0	0.8770008138130484	-0.3139941279239877	0.0	0.8915573841220096	-0.23207292118498424	0.0	0.8488261734067909	-0.3721618608083807	0.0	0.9177584245271154	-0.334474561210973	0.0	0.9339470943542779	-0.26263431776217944	0.0
62	2.086349206349206	0.9517754979789644	-0.43569129788139815	0.0	0.9483657006307592	-0.4331950013352462	0.0	1.0475631506290992	-0.3741554959261386	0.0	1.1083499334985711	-0.4372606509740578	0.0	1.140267199869415	-0.41010608863451053	0.0	1.1417714351243948	-0.4194466610246928	0.0	1.114758954039144	-0.45389763046077886	0.0	0.9532313106575556	-0.4371334300033321	0.0	1.0455030760708202	-0.3792818217955527	0.0	1.1138494243705943	-0.43573868811332395	0.0	1.150647219049611	-0.4079530282095587	0.0	1.1501951551601823	-0.410555008829726	0.0	1.124600959364851	-0.4504816380226301	0.0	0.8178267140728829	-0.35832338055391244	0.0	0.7301637835851408	-0.35035989733186773	0.0	0.7811572117521206	-0.3235939074932792	0.0	0.8101308197374828	-0.34902850644874184	0.0	0.8774766000887153	-0.3136167880578122	0.0	0.9032389734340408	-0.23345017779106944	0.0	0.840571197963668	-0.36641857520168253	0.0	0.916214457925392	-0.3333743078842772	0.0	0.945033089339139	-0.2624010418763756	0.0
